<svg xmlns="http://www.w3.org/2000/svg" viewBox="0 0 64 64" width="64" height="64">
  <defs>
    <linearGradient id="bg" x1="0" y1="0" x2="1" y2="1">
      <stop offset="0%" stop-color="#0F172A"/>
      <stop offset="100%" stop-color="#1E293B"/>
    </linearGradient>
    <linearGradient id="edge" x1="0" y1="0" x2="1" y2="0">
      <stop offset="0%" stop-color="#38BDF8" stop-opacity="0.4"/>
      <stop offset="100%" stop-color="#38BDF8" stop-opacity="0.9"/>
    </linearGradient>
    <radialGradient id="node" cx="0.3" cy="0.3" r="0.8">
      <stop offset="0%" stop-color="#7DD3FC"/>
      <stop offset="100%" stop-color="#0284C7"/>
    </radialGradient>
  </defs>

  <rect width="64" height="64" rx="14" fill="url(#bg)"/>

  <g stroke="url(#edge)" stroke-width="1.4" stroke-linecap="round" fill="none">
    <line x1="16" y1="20" x2="32" y2="14"/>
    <line x1="16" y1="20" x2="32" y2="32"/>
    <line x1="16" y1="20" x2="32" y2="50"/>
    <line x1="16" y1="44" x2="32" y2="14"/>
    <line x1="16" y1="44" x2="32" y2="32"/>
    <line x1="16" y1="44" x2="32" y2="50"/>
    <line x1="32" y1="14" x2="48" y2="32"/>
    <line x1="32" y1="32" x2="48" y2="32"/>
    <line x1="32" y1="50" x2="48" y2="32"/>
  </g>

  <g fill="url(#node)" stroke="#0EA5E9" stroke-width="0.5">
    <circle cx="16" cy="20" r="4"/>
    <circle cx="16" cy="44" r="4"/>
    <circle cx="32" cy="14" r="4"/>
    <circle cx="32" cy="32" r="4"/>
    <circle cx="32" cy="50" r="4"/>
    <circle cx="48" cy="32" r="5"/>
  </g>

  <circle cx="48" cy="32" r="7" fill="none" stroke="#7DD3FC" stroke-width="0.8" opacity="0.55"/>
</svg>
